<svg width="500" height="95" viewBox="0 0 500 95" fill="none" xmlns="http://www.w3.org/2000/svg">
<path d="M231.842 12.1113V35.0889V45.159C231.858 46.3004 232.151 47.4155 232.69 48.385C234.341 51.2139 237.41 51.1227 241.034 51.1227C244.659 51.1227 247.773 54.0793 249.208 56.1416C249.616 56.7257 249.84 57.0907 249.84 57.0907C249.84 57.0907 250.072 56.7257 250.476 56.1416C251.911 54.0975 255.025 51.1227 258.649 51.1227C262.273 51.1227 265.343 51.2276 266.99 48.385C267.531 47.4166 267.826 46.3011 267.842 45.159V35.0889V12.1113H231.842Z" fill="#FA7836"/>
<path d="M0.0458984 9.47559V55.1759H4.35891V13.9153H44.1422V55.1759H48.3981V9.47559H0.0458984Z" fill="#FBF7F4"/>
<path d="M100.802 13.582V9.47559H58.2793V55.1759H100.802V51.0695H62.5964V34.2239H98.7596V30.437H62.5964V13.582H100.802Z" fill="#FBF7F4"/>
<path d="M112.788 48.3122L153.561 9.46973H156.827V55.1654H152.567V16.3229L111.797 55.1654H108.475V9.46973H112.788V48.3122Z" fill="#FBF7F4"/>
<path d="M147.259 0H118.095V3.78706H147.259V0Z" fill="#FBF7F4"/>
<path d="M209.74 9.47456V31.3485C205.48 36.7006 196.695 39.9628 187.34 39.9628C174.682 39.9628 169.957 34.2183 169.957 23.1217V9.34668H165.701V23.5139C165.701 37.202 171.474 44.4021 186.349 44.4021C195.448 44.4021 204.547 41.3999 209.74 36.244V55.1749H214.053V9.47456H209.74Z" fill="#FBF7F4"/>
<path d="M285.625 9.47559V55.1759H289.938V13.9153H329.738V55.1759H333.977V9.47559H285.625Z" fill="#FBF7F4"/>
<path d="M386.359 13.582V9.47559H343.836V55.1759H386.359V51.0695H348.153V34.2239H384.316V30.437H348.153V13.582H386.359Z" fill="#FBF7F4"/>
<path d="M398.375 48.3122L439.149 9.46973H442.414V55.1654H438.154V16.3229L397.384 55.1654H394.058V9.46973H398.375V48.3122Z" fill="#FBF7F4"/>
<path d="M432.838 0H403.674V3.78706H432.838V0Z" fill="#FBF7F4"/>
<path d="M495.325 9.47456V31.3485C491.069 36.7006 482.28 39.9628 472.928 39.9628C460.271 39.9628 455.546 34.2183 455.546 23.1217V9.34668H451.29V23.5139C451.29 37.202 457.062 44.4021 471.938 44.4021C481.037 44.4021 490.136 41.3999 495.325 36.244V55.1749H499.642V9.47456H495.325Z" fill="#FBF7F4"/>
<path d="M259.39 37.0758C259.035 37.3657 258.654 37.6121 258.252 37.8106C257.952 37.9565 257.629 38.0354 257.302 38.0432C256.935 38.0428 256.571 37.9639 256.23 37.8106C255.804 37.594 255.408 37.3079 255.056 36.9618C254.624 36.5511 254.074 35.9899 253.426 35.269C253.603 34.2462 253.865 33.2444 254.208 32.2761C254.448 31.5963 254.778 30.9606 255.187 30.3913C255.476 29.9845 255.835 29.6465 256.242 29.3967C256.393 29.8243 256.563 30.2431 256.752 30.6515C256.892 30.9659 257.092 31.242 257.339 31.4593C257.584 31.6484 257.877 31.7442 258.175 31.7329C258.513 31.7498 258.845 31.6315 259.112 31.3996C259.366 31.1626 259.559 30.8564 259.675 30.5102C259.806 30.1382 259.872 29.7416 259.871 29.3419C259.875 28.9966 259.812 28.6546 259.686 28.3394C259.56 28.0241 259.374 27.7433 259.141 27.5168C258.601 27.0115 257.912 26.7512 257.209 26.787C256.699 26.7934 256.197 26.9176 255.733 27.1519C255.192 27.4355 254.702 27.8268 254.286 28.3064C253.761 28.9181 253.317 29.6111 252.969 30.3641C252.507 31.3631 252.145 32.4157 251.889 33.5032L248.705 29.7389C249.332 29.4371 249.916 29.0328 250.437 28.539C250.933 28.0747 251.348 27.5117 251.66 26.8783C251.968 26.2411 252.125 25.5262 252.117 24.8019C252.135 24.2027 252.032 23.6067 251.815 23.0584C251.598 22.51 251.274 22.0238 250.865 21.6356C250.028 20.8265 248.88 20.4219 247.421 20.4219C246.725 20.4208 246.032 20.5284 245.362 20.7414C244.721 20.9469 244.115 21.2741 243.572 21.7087C243.05 22.1284 242.621 22.678 242.321 23.3146C242.005 24.0091 241.848 24.7804 241.864 25.5594C241.859 26.1733 241.956 26.7832 242.15 27.3573C242.347 27.9244 242.61 28.4599 242.932 28.9498C243.276 29.4734 243.65 29.9703 244.054 30.4372C243.46 30.6939 242.892 31.0181 242.358 31.4045C241.877 31.7513 241.443 32.1739 241.069 32.6593C240.721 33.1137 240.445 33.6321 240.254 34.1921C240.057 34.7844 239.96 35.4128 239.969 36.0448C239.927 37.1712 240.213 38.2821 240.784 39.2111C241.358 40.0744 242.142 40.7348 243.043 41.1137C244.826 41.8405 246.765 41.9363 248.599 41.3877C249.255 41.1824 249.876 40.8569 250.437 40.4248C250.923 40.0533 251.354 39.6012 251.717 39.0836C252.186 39.5614 252.687 39.996 253.218 40.3838C253.662 40.7057 254.146 40.956 254.653 41.1275C255.106 41.2789 255.577 41.3572 256.051 41.3601C256.56 41.3678 257.065 41.2575 257.535 41.0361C258.007 40.812 258.443 40.5038 258.827 40.1236C259.262 39.6993 259.671 39.242 260.05 38.7548L259.39 37.0758ZM245.937 23.0316C246.138 22.8172 246.376 22.6521 246.637 22.5468C246.899 22.4416 247.176 22.3984 247.453 22.4203C247.976 22.4011 248.488 22.5869 248.901 22.9452C249.103 23.1433 249.262 23.3913 249.364 23.6702C249.466 23.949 249.508 24.2507 249.488 24.5511C249.48 24.9691 249.414 25.3835 249.292 25.7786C249.144 26.2587 248.933 26.7108 248.664 27.1198C248.333 27.6172 247.932 28.0518 247.478 28.4067C247.095 27.9504 246.748 27.5352 246.434 27.1336C246.135 26.7608 245.884 26.3432 245.688 25.8927C245.51 25.4737 245.416 25.0153 245.415 24.5511C245.399 23.9892 245.582 23.443 245.925 23.0316H245.937ZM249.002 38.6545C248.459 38.9705 247.853 39.1274 247.241 39.1108C246.652 39.1103 246.071 38.954 245.546 38.6545C245.022 38.3594 244.583 37.9038 244.282 37.3405C243.946 36.6948 243.779 35.9565 243.801 35.2098C243.794 34.7236 243.858 34.2392 243.992 33.7768C244.115 33.3899 244.297 33.0304 244.53 32.7141C244.753 32.4145 245.006 32.1447 245.285 31.9107L250.177 37.5183C249.867 38.0019 249.461 38.3974 248.99 38.6728L249.002 38.6545Z" fill="#FBF7F4"/>
<path d="M103.919 80.383H91.6487V73.1465H88.5098V90.9457H91.6487V83.7366H103.919V90.9457H107.038V73.1465H103.919V80.383Z" fill="#FBF7F4"/>
<path d="M115.77 90.9457H132.259V87.6833H118.908V83.6225H131.546V80.4742H118.908V76.4134H132.259V73.1465H115.77V90.9457Z" fill="#FBF7F4"/>
<path d="M159.504 87.5926V73.1514H142.118V80.2695C142.118 83.5547 141.767 85.9045 141.021 87.5699H138.946V94.1172H142.065V90.9233H158.432V94.1172H161.551V87.5699L159.504 87.5926ZM156.386 87.5926H144.348C144.951 85.7675 145.236 83.404 145.236 80.2922V76.528H156.386V87.5926Z" fill="#FBF7F4"/>
<path d="M185.317 81.62C185.762 81.187 186.114 80.6485 186.35 80.044C186.585 79.4395 186.698 78.7841 186.679 78.1249C186.679 75.0588 184.604 73.1514 181.257 73.1514H169.17V90.946H181.665C185.134 90.946 187.29 88.9614 187.29 85.7675C187.321 84.9421 187.155 84.1222 186.808 83.393C186.461 82.6638 185.946 82.0519 185.317 81.62ZM172.309 76.3684H181.155C182.056 76.3684 183.56 76.6194 183.56 78.3076C183.56 79.9958 182.056 80.2695 181.155 80.2695H172.309V76.3684ZM181.603 87.7294H172.309V83.4407H181.603C182.561 83.4407 184.172 83.7186 184.172 85.5848C184.172 87.451 182.561 87.7294 181.603 87.7294Z" fill="#FBF7F4"/>
<path d="M198.228 85.662V73.1465H195.089V90.9457H197.368L210.498 78.4301V90.9457H213.617V73.1465H211.363L198.228 85.662Z" fill="#FBF7F4"/>
<path d="M247.337 73.1465L241.283 80.3602H237.149V73.1465H234.031V80.3602H229.901L223.844 73.1465H219.828L227.211 82.0484L219.828 90.9457H223.844L229.901 83.7366H234.031V90.9457H237.149V83.7366H241.283L247.337 90.9457H251.328L243.97 82.0484L251.328 73.1465H247.337Z" fill="#FBF7F4"/>
<path d="M260.64 85.662V73.1465H257.501V90.9457H259.78L272.91 78.4301V90.9457H276.029V73.1465H273.775L260.64 85.662Z" fill="#FBF7F4"/>
<path d="M295.592 84.243L287.166 73.1465H284.81V90.9457H287.949V79.1282L295.592 89.2301L303.256 79.1237V90.9457H306.375V73.1465H304.043L295.592 84.243Z" fill="#FBF7F4"/>
<path d="M324.599 72.8301C315.696 72.8301 314.367 78.5744 314.367 82.001C314.367 89.9812 320.78 91.1719 324.599 91.1719C328.419 91.1719 334.832 89.9812 334.832 82.001C334.832 78.5744 333.503 72.8301 324.599 72.8301ZM324.599 87.773C319.813 87.773 317.486 85.8839 317.486 82.001C317.486 78.1181 319.813 76.2521 324.599 76.2521C329.385 76.2521 331.713 78.1318 331.713 82.001C331.713 85.8702 329.385 87.773 324.599 87.773Z" fill="#FBF7F4"/>
<path d="M362.362 84.2055C361.775 87.5089 359.508 91.2185 352.313 91.2185C343.41 91.2185 342.081 85.4738 342.081 82.0471C342.081 74.0487 348.493 72.8535 352.313 72.8535C359.435 72.8535 361.726 76.5036 362.346 79.7796H359.084C358.29 77.4252 356.06 76.2756 352.297 76.2756C347.511 76.2756 345.183 78.1643 345.183 82.0471C345.183 85.93 347.511 87.7964 352.297 87.7964C356.117 87.7964 358.355 86.6192 359.121 84.2055H362.362Z" fill="#FBF7F4"/>
<path d="M368.928 76.5503H376.632V90.9457H379.751V76.5503H387.456V73.1465H368.928V76.5503Z" fill="#FBF7F4"/>
<path d="M404.749 77.8741H398.034V73.1514H394.896V90.946H404.749C410.66 90.946 411.903 87.3873 411.903 84.3987C411.903 81.4101 410.651 77.8741 404.749 77.8741ZM404.749 87.6839H398.034V81.109H404.749C408.348 81.109 408.764 82.9843 408.764 84.3942C408.756 85.9273 408.299 87.6839 404.749 87.6839Z" fill="#FBF7F4"/>
<path d="M74.2833 80.2314H0V83.8816H74.2833V80.2314Z" fill="#FBF7F4"/>
<path d="M500 80.2314H425.717V83.8816H500V80.2314Z" fill="#FBF7F4"/>
</svg>
