<svg width="181" height="34" viewBox="0 0 181 34" fill="none" xmlns="http://www.w3.org/2000/svg">
<path d="M83.9277 4.37402V12.6748V16.3126C83.9337 16.7249 84.0398 17.1278 84.2347 17.478C84.8324 18.5 85.9436 18.467 87.2556 18.467C88.5675 18.467 89.695 19.5351 90.2145 20.2801C90.3621 20.4911 90.4432 20.623 90.4432 20.623C90.4432 20.623 90.5273 20.4911 90.6734 20.2801C91.1929 19.5417 92.3204 18.467 93.6323 18.467C94.9443 18.467 96.0556 18.5049 96.6518 17.478C96.8476 17.1282 96.9543 16.7252 96.9602 16.3126V12.6748V4.37402H83.9277Z" fill="#FA7836"/>
<path d="M0.015625 3.42285V19.9323H1.57698V5.02673H15.979V19.9323H17.5196V3.42285H0.015625Z" fill="#0C4532"/>
<path d="M36.4894 4.90632V3.42285H21.0957V19.9323H36.4894V18.4488H22.6585V12.3633H35.75V10.9952H22.6585V4.90632H36.4894Z" fill="#0C4532"/>
<path d="M40.8309 17.4529L55.5915 3.4209H56.7736V19.9286H55.2314V5.89665L40.4723 19.9286H39.2695V3.4209H40.8309V17.4529Z" fill="#0C4532"/>
<path d="M53.3096 0H42.752V1.36809H53.3096V0Z" fill="#0C4532"/>
<path d="M75.9251 3.42217V11.3242C74.3829 13.2577 71.2026 14.4362 67.8158 14.4362C63.2335 14.4362 61.5231 12.3609 61.5231 8.35227V3.37598H59.9824V8.49392C59.9824 13.4388 62.0721 16.0399 67.4572 16.0399C70.7511 16.0399 74.045 14.9553 75.9251 13.0927V19.9316H77.4864V3.42217H75.9251Z" fill="#0C4532"/>
<path d="M103.398 3.42285V19.9323H104.96V5.02673H119.368V19.9323H120.902V3.42285H103.398Z" fill="#0C4532"/>
<path d="M139.862 4.90632V3.42285H124.469V19.9323H139.862V18.4488H126.032V12.3633H139.123V10.9952H126.032V4.90632H139.862Z" fill="#0C4532"/>
<path d="M144.215 17.4529L158.976 3.4209H160.158V19.9286H158.616V5.89665L143.857 19.9286H142.652V3.4209H144.215V17.4529Z" fill="#0C4532"/>
<path d="M156.69 0H146.133V1.36809H156.69V0Z" fill="#0C4532"/>
<path d="M179.312 3.42217V11.3242C177.772 13.2577 174.59 14.4362 171.204 14.4362C166.622 14.4362 164.912 12.3609 164.912 8.35227V3.37598H163.371V8.49392C163.371 13.4388 165.461 16.0399 170.846 16.0399C174.14 16.0399 177.434 14.9553 179.312 13.0927V19.9316H180.875V3.42217H179.312Z" fill="#0C4532"/>
<path d="M93.9011 13.3933C93.7728 13.498 93.6347 13.587 93.4894 13.6587C93.3807 13.7114 93.2639 13.7399 93.1455 13.7427C93.0125 13.7426 92.8808 13.7141 92.7574 13.6587C92.603 13.5804 92.4597 13.4771 92.3324 13.3521C92.1759 13.2037 91.9767 13.001 91.7421 12.7405C91.8062 12.371 91.9011 12.0091 92.0254 11.6593C92.1121 11.4138 92.2315 11.1841 92.3796 10.9784C92.4844 10.8315 92.6143 10.7094 92.7618 10.6192C92.8164 10.7736 92.878 10.9249 92.9463 11.0724C92.9969 11.186 93.0695 11.2858 93.1588 11.3643C93.2476 11.4326 93.3536 11.4672 93.4613 11.4631C93.5837 11.4692 93.704 11.4265 93.8007 11.3427C93.8924 11.2571 93.9626 11.1465 94.0044 11.0214C94.0517 10.887 94.0757 10.7437 94.0752 10.5994C94.0768 10.4746 94.054 10.3511 94.0084 10.2372C93.9628 10.1233 93.8954 10.0218 93.8111 9.94003C93.6157 9.75748 93.3661 9.66345 93.1116 9.67637C92.9273 9.67868 92.7454 9.72354 92.5773 9.8082C92.3816 9.91067 92.2041 10.052 92.0534 10.2253C91.8635 10.4463 91.7029 10.6966 91.5768 10.9686C91.4097 11.3295 91.2785 11.7098 91.1857 12.1026L90.0331 10.7428C90.2603 10.6337 90.4716 10.4877 90.6603 10.3093C90.8398 10.1415 90.9899 9.93818 91.1031 9.70937C91.2144 9.47918 91.2713 9.2209 91.2683 8.95926C91.2749 8.74278 91.2375 8.52748 91.1591 8.3294C91.0806 8.13131 90.9631 7.95565 90.8153 7.81543C90.5123 7.52313 90.0966 7.37696 89.5683 7.37696C89.3163 7.37658 89.0654 7.41545 88.823 7.49237C88.5907 7.5666 88.3716 7.68482 88.1751 7.84183C87.9859 7.99344 87.8308 8.19198 87.7221 8.42195C87.6078 8.67283 87.551 8.95147 87.5568 9.23291C87.5547 9.45468 87.5898 9.675 87.6601 9.88241C87.7314 10.0873 87.8267 10.2807 87.9434 10.4577C88.0677 10.6469 88.2033 10.8263 88.3493 10.995C88.1345 11.0878 87.9288 11.2049 87.7354 11.3445C87.5612 11.4698 87.4042 11.6224 87.269 11.7978C87.1427 11.9619 87.0429 12.1492 86.9739 12.3515C86.9025 12.5655 86.8675 12.7925 86.8706 13.0208C86.8556 13.4277 86.9591 13.829 87.1657 14.1646C87.3736 14.4765 87.6574 14.7151 87.9833 14.8519C88.6288 15.1145 89.331 15.1491 89.9948 14.9509C90.2323 14.8768 90.4571 14.7592 90.6603 14.6031C90.836 14.4689 90.9923 14.3056 91.1237 14.1186C91.2932 14.2912 91.4748 14.4482 91.6668 14.5883C91.8278 14.7046 92.0027 14.795 92.1863 14.8569C92.3506 14.9116 92.521 14.9399 92.6924 14.941C92.8768 14.9437 93.0597 14.9039 93.2296 14.8239C93.4005 14.7429 93.5584 14.6316 93.6974 14.4943C93.855 14.341 94.0029 14.1758 94.1402 13.9998L93.9011 13.3933ZM89.0311 8.31974C89.1038 8.24226 89.1902 8.18264 89.2847 8.14461C89.3792 8.10657 89.4798 8.09099 89.5801 8.09889C89.7691 8.09196 89.9544 8.15907 90.104 8.28851C90.1774 8.36006 90.2348 8.44967 90.2717 8.55041C90.3086 8.65114 90.3239 8.76012 90.3165 8.86864C90.3138 9.01967 90.2899 9.16936 90.2456 9.3121C90.1923 9.48554 90.1156 9.64885 90.0184 9.79661C89.8985 9.97628 89.7535 10.1333 89.5889 10.2615C89.4502 10.0967 89.3248 9.94665 89.2111 9.8016C89.1029 9.66691 89.012 9.51605 88.9411 9.35331C88.8764 9.20195 88.8426 9.03636 88.8422 8.86864C88.8364 8.66566 88.9027 8.46836 89.0267 8.31974H89.0311ZM90.1409 13.9636C89.9442 14.0777 89.7249 14.1344 89.5033 14.1284C89.2899 14.1282 89.0796 14.0717 88.8894 13.9636C88.6997 13.857 88.541 13.6923 88.4319 13.4889C88.3104 13.2556 88.2501 12.9889 88.2578 12.7191C88.2552 12.5435 88.2786 12.3685 88.3271 12.2015C88.3714 12.0617 88.4374 11.9318 88.5219 11.8176C88.6026 11.7093 88.6942 11.6119 88.795 11.5273L90.5659 13.5531C90.454 13.7278 90.3069 13.8707 90.1364 13.9702L90.1409 13.9636Z" fill="#FBF7F4"/>
<path d="M37.6194 29.038H33.1774V26.4238H32.041V32.8539H33.1774V30.2495H37.6194V32.8539H38.7484V26.4238H37.6194V29.038Z" fill="#0C4532"/>
<path d="M41.9082 32.8539H47.8777V31.6753H43.0445V30.2083H47.6194V29.071H43.0445V27.604H47.8777V26.4238H41.9082V32.8539Z" fill="#0C4532"/>
<path d="M57.7431 31.6427V26.4258H51.4489V28.9972C51.4489 30.184 51.322 31.0329 51.0519 31.6345H50.3008V33.9998H51.4297V32.8459H57.3549V33.9998H58.4839V31.6345L57.7431 31.6427ZM56.6141 31.6427H52.2562C52.4746 30.9834 52.5779 30.1296 52.5779 29.0054V27.6456H56.6141V31.6427Z" fill="#0C4532"/>
<path d="M67.0857 29.4851C67.2466 29.3287 67.3743 29.1342 67.4596 28.9158C67.5448 28.6974 67.5855 28.4606 67.5786 28.2225C67.5786 27.1148 66.8275 26.4258 65.6159 26.4258H61.2402V32.8542H65.7634C67.0193 32.8542 67.8 32.1372 67.8 30.9834C67.8113 30.6852 67.751 30.389 67.6254 30.1256C67.4998 29.8622 67.3135 29.6411 67.0857 29.4851ZM62.3766 27.588H65.579C65.9051 27.588 66.4497 27.6786 66.4497 28.2885C66.4497 28.8984 65.9051 28.9972 65.579 28.9972H62.3766V27.588ZM65.7413 31.6921H62.3766V30.1428H65.7413C66.0881 30.1428 66.671 30.2432 66.671 30.9174C66.671 31.5916 66.0881 31.6921 65.7413 31.6921Z" fill="#0C4532"/>
<path d="M71.7594 30.9451V26.4238H70.623V32.8539H71.448L76.2014 28.3326V32.8539H77.3304V26.4238H76.5143L71.7594 30.9451Z" fill="#0C4532"/>
<path d="M89.5366 26.4238L87.3451 29.0298H85.8486V26.4238H84.7197V29.0298H83.2247L81.0317 26.4238H79.5781L82.2507 29.6397L79.5781 32.8539H81.0317L83.2247 30.2495H84.7197V32.8539H85.8486V30.2495H87.3451L89.5366 32.8539H90.9813L88.3176 29.6397L90.9813 26.4238H89.5366Z" fill="#0C4532"/>
<path d="M94.3531 30.9451V26.4238H93.2168V32.8539H94.0418L98.7952 28.3326V32.8539H99.9241V26.4238H99.108L94.3531 30.9451Z" fill="#0C4532"/>
<path d="M107.005 30.4325L103.955 26.4238H103.102V32.8539H104.238V28.5848L107.005 32.2341L109.779 28.5831V32.8539H110.908V26.4238H110.064L107.005 30.4325Z" fill="#0C4532"/>
<path d="M117.509 26.3096C114.286 26.3096 113.805 28.3847 113.805 29.6226C113.805 32.5055 116.126 32.9356 117.509 32.9356C118.892 32.9356 121.213 32.5055 121.213 29.6226C121.213 28.3847 120.732 26.3096 117.509 26.3096ZM117.509 31.7078C115.776 31.7078 114.934 31.0253 114.934 29.6226C114.934 28.2199 115.776 27.5458 117.509 27.5458C119.241 27.5458 120.084 28.2248 120.084 29.6226C120.084 31.0204 119.241 31.7078 117.509 31.7078Z" fill="#0C4532"/>
<path d="M131.178 30.4193C130.965 31.6127 130.145 32.9528 127.54 32.9528C124.317 32.9528 123.836 30.8775 123.836 29.6396C123.836 26.7501 126.157 26.3184 127.54 26.3184C130.118 26.3184 130.948 27.6369 131.172 28.8204H129.991C129.704 27.9699 128.896 27.5546 127.534 27.5546C125.802 27.5546 124.959 28.2369 124.959 29.6396C124.959 31.0423 125.802 31.7165 127.534 31.7165C128.917 31.7165 129.727 31.2913 130.005 30.4193H131.178Z" fill="#0C4532"/>
<path d="M133.557 27.6535H136.346V32.8539H137.475V27.6535H140.264V26.4238H133.557V27.6535Z" fill="#0C4532"/>
<path d="M146.524 28.1319H144.093V26.4258H142.957V32.8542H146.524C148.664 32.8542 149.114 31.5685 149.114 30.4889C149.114 29.4093 148.661 28.1319 146.524 28.1319ZM146.524 31.6757H144.093V29.3005H146.524C147.827 29.3005 147.978 29.978 147.978 30.4873C147.975 31.0411 147.809 31.6757 146.524 31.6757Z" fill="#0C4532"/>
<path d="M26.8913 28.9834H0V30.302H26.8913V28.9834Z" fill="#0C4532"/>
<path d="M181.005 28.9834H154.113V30.302H181.005V28.9834Z" fill="#0C4532"/>
</svg>
